<svg xmlns="http://www.w3.org/2000/svg" xmlns:xlink="http://www.w3.org/1999/xlink" viewBox="0 0 100 100" width="500px" height="500px"><defs><rect id="hfGNgcreB_9E23HWUqZUua" width="76" height="80.343" x="-105" y="-114.343"/></defs><clipPath id="hfGNgcreB_9E23HWUqZUub"><use overflow="visible" xlink:href="#hfGNgcreB_9E23HWUqZUua"/></clipPath><g clip-path="url(#hfGNgcreB_9E23HWUqZUub)"><defs><rect id="hfGNgcreB_9E23HWUqZUuc" width="720.914" height="1533.029" x="-128.886" y="-296.743"/></defs></g><g><circle cx="50" cy="49" r="29" fill="#4b4dff"/><path fill="#4343bf" d="M50,81c-17.645,0-32-14.355-32-32s14.355-32,32-32s32,14.355,32,32S67.645,81,50,81z M50,23 c-14.337,0-26,11.663-26,26s11.663,26,26,26s26-11.663,26-26S64.337,23,50,23z"/><path fill="#3abcf8" d="M50,85c-19.851,0-36-16.149-36-36h10c0,14.337,11.663,26,26,26s26-11.663,26-26h10 C86,68.851,69.851,85,50,85z"/></g><g><rect width="4" height="20" x="48" y="45" fill="#edf7f5"/><rect width="4" height="7" x="48" y="33" fill="#edf7f5"/></g></svg>