<svg id="Capa_1" enable-background="new 0 0 512 512" height="512" viewBox="0 0 512 512" width="512" xmlns="http://www.w3.org/2000/svg"><g><path d="m175 0h-160c-8.284 0-15 6.716-15 15v482c0 8.284 6.716 15 15 15h160c8.284 0 15-6.716 15-15v-482c0-8.284-6.716-15-15-15z" fill="#de5ca3"/><path d="m175 0h-80v512h80c8.284 0 15-6.716 15-15v-482c0-8.284-6.716-15-15-15z" fill="#da1d81"/><path d="m125 450h-60c-8.284 0-15-6.716-15-15v-200c0-8.284 6.716-15 15-15h60c8.284 0 15 6.716 15 15v200c0 8.284-6.716 15-15 15z" fill="#fbf3f3"/><path d="m125 220h-30v230h30c8.284 0 15-6.716 15-15v-200c0-8.284-6.716-15-15-15z" fill="#dddcf3"/><path d="m497 512h-260c-8.284 0-15-6.716-15-15v-482c0-8.284 6.716-15 15-15h186.213l29.787 63 59 25.787v408.213c0 8.284-6.716 15-15 15z" fill="#fbf3f3"/><path d="m423.213 0h-56.213v512h130c8.284 0 15-6.716 15-15v-408.213l-59-25.787z" fill="#dddcf3"/><path d="m512 88.787h-73.787c-8.284 0-15-6.716-15-15v-73.787z" fill="#b6b4e8"/><path d="m437 170h-80c-8.284 0-15-6.716-15-15s6.716-15 15-15h80c8.284 0 15 6.716 15 15s-6.716 15-15 15z" fill="#dddcf3"/><path d="m437 140h-70v30h70c8.284 0 15-6.716 15-15s-6.716-15-15-15z" fill="#b6b4e8"/><path d="m437 230h-80c-8.284 0-15-6.716-15-15s6.716-15 15-15h80c8.284 0 15 6.716 15 15s-6.716 15-15 15z" fill="#dddcf3"/><path d="m437 200h-70v30h70c8.284 0 15-6.716 15-15s-6.716-15-15-15z" fill="#b6b4e8"/><path d="m437 290h-80c-8.284 0-15-6.716-15-15s6.716-15 15-15h80c8.284 0 15 6.716 15 15s-6.716 15-15 15z" fill="#dddcf3"/><path d="m437 260h-70v30h70c8.284 0 15-6.716 15-15s-6.716-15-15-15z" fill="#b6b4e8"/><path d="m437 350h-80c-8.284 0-15-6.716-15-15s6.716-15 15-15h80c8.284 0 15 6.716 15 15s-6.716 15-15 15z" fill="#dddcf3"/><path d="m437 320h-70v30h70c8.284 0 15-6.716 15-15s-6.716-15-15-15z" fill="#b6b4e8"/><path d="m437 410h-80c-8.284 0-15-6.716-15-15s6.716-15 15-15h80c8.284 0 15 6.716 15 15s-6.716 15-15 15z" fill="#dddcf3"/><path d="m437 380h-70v30h70c8.284 0 15-6.716 15-15s-6.716-15-15-15z" fill="#b6b4e8"/><g fill="#8bbafc"><circle cx="297" cy="395" r="15"/><circle cx="297" cy="335" r="15"/><circle cx="297" cy="275" r="15"/><circle cx="297" cy="215" r="15"/><circle cx="297" cy="155" r="15"/></g><circle cx="95" cy="105" fill="#514898" r="40"/><path d="m95 65v80c22.091 0 40-17.909 40-40s-17.909-40-40-40z" fill="#39326c"/></g></svg>