<svg height="512" viewBox="0 0 128 128" width="512" xmlns="http://www.w3.org/2000/svg"><g id="Flat"><g id="Man_1" data-name="Man 1"><path d="m35.1143 45.2209c-8.1253-6.4421-3.6068-44.4999 25.4375-30.3438 15.1721 6.6841 41.9383-.708 33.5321 33.2817l-30.8092 11.6612z" fill="#594a47"/><path d="m83.6569 88.3426h-2.8627l-16.7942 7.5-16.7942-7.5h-2.8627a19.6568 19.6568 0 0 0 -19.6569 19.6574c0 4.3422.8763 6.376 7.8628 7.8628 0-.0005 23.521 4.1372 31.451 4.1372s31.451-4.1377 31.451-4.1377c6.9865-1.4868 7.8628-3.5206 7.8628-7.8628a19.6568 19.6568 0 0 0 -19.6569-19.6569z" fill="#79a5ff"/><path d="m80.7942 90.8427v-2.5h-33.5883v2.5a16.7942 16.7942 0 0 0 33.5883 0z" fill="#f7f7f7"/><path d="m52.2059 80v10.8427a11.7941 11.7941 0 0 0 23.5882 0v-10.7827z" fill="#f2ad8d"/><path d="m52.2059 88.2924c5.8451 2.6921 15.54 3.707 23.5882 0v-5.4537h-23.5882z" fill="#f29f77"/><path d="m91.4205 45.11c0-2.33-3.4721-13.8835-15.6264-13.8835h-23.5882c-12.2076 0-15.6265 11.5373-15.6265 13.8835-10.6227 0-10.7948 16.1949-.0408 16.559h.0473c.9973 8.1565 5.77 25.4938 27.414 25.4938s26.4169-17.3371 27.4141-25.4935h.0469c10.9007-.3678 10.0468-16.5593-.0404-16.5593z" fill="#f2ad8d"/><g fill="#3a3d3e"><circle cx="51.75" cy="50.268" r="3.75"/><circle cx="76.252" cy="50.268" r="3.75"/></g></g></g></svg>